<?xml version="1.0" encoding="UTF-8" standalone="no"?>
<!DOCTYPE svg PUBLIC "-//W3C//DTD SVG 1.1//EN"
 "http://www.w3.org/Graphics/SVG/1.1/DTD/svg11.dtd">
<!-- Generated by graphviz version 2.38.0 (20140413.2041)
 -->
<!-- Title: Tree Pages: 1 -->
<svg width="679pt" height="552pt"
 viewBox="0.00 0.00 678.50 552.00" xmlns="http://www.w3.org/2000/svg" xmlns:xlink="http://www.w3.org/1999/xlink">
<g id="graph0" class="graph" transform="scale(1 1) rotate(0) translate(4 548)">
<title>Tree</title>
<polygon fill="white" stroke="none" points="-4,4 -4,-548 674.5,-548 674.5,4 -4,4"/>
<!-- 0 -->
<g id="node1" class="node"><title>0</title>
<path fill="#a7d3f3" stroke="black" d="M489.5,-544C489.5,-544 344.5,-544 344.5,-544 338.5,-544 332.5,-538 332.5,-532 332.5,-532 332.5,-473 332.5,-473 332.5,-467 338.5,-461 344.5,-461 344.5,-461 489.5,-461 489.5,-461 495.5,-461 501.5,-467 501.5,-473 501.5,-473 501.5,-532 501.5,-532 501.5,-538 495.5,-544 489.5,-544"/>
<text text-anchor="middle" x="417" y="-528.8" font-family="Helvetica,sans-Serif" font-size="14.00">outlook_overcast &lt;= 0.5</text>
<text text-anchor="middle" x="417" y="-513.8" font-family="Helvetica,sans-Serif" font-size="14.00">gini = 0.459</text>
<text text-anchor="middle" x="417" y="-498.8" font-family="Helvetica,sans-Serif" font-size="14.00">samples = 14</text>
<text text-anchor="middle" x="417" y="-483.8" font-family="Helvetica,sans-Serif" font-size="14.00">value = [5, 9]</text>
<text text-anchor="middle" x="417" y="-468.8" font-family="Helvetica,sans-Serif" font-size="14.00">class = Play</text>
</g>
<!-- 1 -->
<g id="node2" class="node"><title>1</title>
<path fill="#ffffff" stroke="black" d="M413,-425C413,-425 273,-425 273,-425 267,-425 261,-419 261,-413 261,-413 261,-354 261,-354 261,-348 267,-342 273,-342 273,-342 413,-342 413,-342 419,-342 425,-348 425,-354 425,-354 425,-413 425,-413 425,-419 419,-425 413,-425"/>
<text text-anchor="middle" x="343" y="-409.8" font-family="Helvetica,sans-Serif" font-size="14.00">humidity_normal &lt;= 0.5</text>
<text text-anchor="middle" x="343" y="-394.8" font-family="Helvetica,sans-Serif" font-size="14.00">gini = 0.5</text>
<text text-anchor="middle" x="343" y="-379.8" font-family="Helvetica,sans-Serif" font-size="14.00">samples = 10</text>
<text text-anchor="middle" x="343" y="-364.8" font-family="Helvetica,sans-Serif" font-size="14.00">value = [5, 5]</text>
<text text-anchor="middle" x="343" y="-349.8" font-family="Helvetica,sans-Serif" font-size="14.00">class = Not_Play</text>
</g>
<!-- 0&#45;&gt;1 -->
<g id="edge1" class="edge"><title>0&#45;&gt;1</title>
<path fill="none" stroke="black" d="M391.326,-460.907C385.758,-452.105 379.812,-442.703 374.062,-433.612"/>
<polygon fill="black" stroke="black" points="376.932,-431.601 368.629,-425.021 371.016,-435.343 376.932,-431.601"/>
<text text-anchor="middle" x="363.138" y="-445.71" font-family="Helvetica,sans-Serif" font-size="14.00">True</text>
</g>
<!-- 12 -->
<g id="node13" class="node"><title>12</title>
<path fill="#399de5" stroke="black" d="M528.5,-417.5C528.5,-417.5 455.5,-417.5 455.5,-417.5 449.5,-417.5 443.5,-411.5 443.5,-405.5 443.5,-405.5 443.5,-361.5 443.5,-361.5 443.5,-355.5 449.5,-349.5 455.5,-349.5 455.5,-349.5 528.5,-349.5 528.5,-349.5 534.5,-349.5 540.5,-355.5 540.5,-361.5 540.5,-361.5 540.5,-405.5 540.5,-405.5 540.5,-411.5 534.5,-417.5 528.5,-417.5"/>
<text text-anchor="middle" x="492" y="-402.3" font-family="Helvetica,sans-Serif" font-size="14.00">gini = 0.0</text>
<text text-anchor="middle" x="492" y="-387.3" font-family="Helvetica,sans-Serif" font-size="14.00">samples = 4</text>
<text text-anchor="middle" x="492" y="-372.3" font-family="Helvetica,sans-Serif" font-size="14.00">value = [0, 4]</text>
<text text-anchor="middle" x="492" y="-357.3" font-family="Helvetica,sans-Serif" font-size="14.00">class = Play</text>
</g>
<!-- 0&#45;&gt;12 -->
<g id="edge12" class="edge"><title>0&#45;&gt;12</title>
<path fill="none" stroke="black" d="M443.021,-460.907C450.236,-449.652 458.078,-437.418 465.329,-426.106"/>
<polygon fill="black" stroke="black" points="468.289,-427.975 470.739,-417.667 462.396,-424.197 468.289,-427.975"/>
<text text-anchor="middle" x="476.082" y="-438.389" font-family="Helvetica,sans-Serif" font-size="14.00">False</text>
</g>
<!-- 2 -->
<g id="node3" class="node"><title>2</title>
<path fill="#eca06a" stroke="black" d="M328,-306C328,-306 200,-306 200,-306 194,-306 188,-300 188,-294 188,-294 188,-235 188,-235 188,-229 194,-223 200,-223 200,-223 328,-223 328,-223 334,-223 340,-229 340,-235 340,-235 340,-294 340,-294 340,-300 334,-306 328,-306"/>
<text text-anchor="middle" x="264" y="-290.8" font-family="Helvetica,sans-Serif" font-size="14.00">outlook_sunny &lt;= 0.5</text>
<text text-anchor="middle" x="264" y="-275.8" font-family="Helvetica,sans-Serif" font-size="14.00">gini = 0.32</text>
<text text-anchor="middle" x="264" y="-260.8" font-family="Helvetica,sans-Serif" font-size="14.00">samples = 5</text>
<text text-anchor="middle" x="264" y="-245.8" font-family="Helvetica,sans-Serif" font-size="14.00">value = [4, 1]</text>
<text text-anchor="middle" x="264" y="-230.8" font-family="Helvetica,sans-Serif" font-size="14.00">class = Not_Play</text>
</g>
<!-- 1&#45;&gt;2 -->
<g id="edge2" class="edge"><title>1&#45;&gt;2</title>
<path fill="none" stroke="black" d="M315.591,-341.907C309.586,-333.014 303.169,-323.509 296.971,-314.331"/>
<polygon fill="black" stroke="black" points="299.857,-312.35 291.36,-306.021 294.056,-316.267 299.857,-312.35"/>
</g>
<!-- 7 -->
<g id="node8" class="node"><title>7</title>
<path fill="#6ab6ec" stroke="black" d="M474,-306C474,-306 370,-306 370,-306 364,-306 358,-300 358,-294 358,-294 358,-235 358,-235 358,-229 364,-223 370,-223 370,-223 474,-223 474,-223 480,-223 486,-229 486,-235 486,-235 486,-294 486,-294 486,-300 480,-306 474,-306"/>
<text text-anchor="middle" x="422" y="-290.8" font-family="Helvetica,sans-Serif" font-size="14.00">windy_true &lt;= 0.5</text>
<text text-anchor="middle" x="422" y="-275.8" font-family="Helvetica,sans-Serif" font-size="14.00">gini = 0.32</text>
<text text-anchor="middle" x="422" y="-260.8" font-family="Helvetica,sans-Serif" font-size="14.00">samples = 5</text>
<text text-anchor="middle" x="422" y="-245.8" font-family="Helvetica,sans-Serif" font-size="14.00">value = [1, 4]</text>
<text text-anchor="middle" x="422" y="-230.8" font-family="Helvetica,sans-Serif" font-size="14.00">class = Play</text>
</g>
<!-- 1&#45;&gt;7 -->
<g id="edge7" class="edge"><title>1&#45;&gt;7</title>
<path fill="none" stroke="black" d="M370.409,-341.907C376.414,-333.014 382.831,-323.509 389.029,-314.331"/>
<polygon fill="black" stroke="black" points="391.944,-316.267 394.64,-306.021 386.143,-312.35 391.944,-316.267"/>
</g>
<!-- 3 -->
<g id="node4" class="node"><title>3</title>
<path fill="#ffffff" stroke="black" d="M180.5,-187C180.5,-187 69.5,-187 69.5,-187 63.5,-187 57.5,-181 57.5,-175 57.5,-175 57.5,-116 57.5,-116 57.5,-110 63.5,-104 69.5,-104 69.5,-104 180.5,-104 180.5,-104 186.5,-104 192.5,-110 192.5,-116 192.5,-116 192.5,-175 192.5,-175 192.5,-181 186.5,-187 180.5,-187"/>
<text text-anchor="middle" x="125" y="-171.8" font-family="Helvetica,sans-Serif" font-size="14.00">windy_false &lt;= 0.5</text>
<text text-anchor="middle" x="125" y="-156.8" font-family="Helvetica,sans-Serif" font-size="14.00">gini = 0.5</text>
<text text-anchor="middle" x="125" y="-141.8" font-family="Helvetica,sans-Serif" font-size="14.00">samples = 2</text>
<text text-anchor="middle" x="125" y="-126.8" font-family="Helvetica,sans-Serif" font-size="14.00">value = [1, 1]</text>
<text text-anchor="middle" x="125" y="-111.8" font-family="Helvetica,sans-Serif" font-size="14.00">class = Not_Play</text>
</g>
<!-- 2&#45;&gt;3 -->
<g id="edge3" class="edge"><title>2&#45;&gt;3</title>
<path fill="none" stroke="black" d="M215.775,-222.907C204.562,-213.469 192.531,-203.343 181.015,-193.649"/>
<polygon fill="black" stroke="black" points="183.045,-190.783 173.14,-187.021 178.537,-196.138 183.045,-190.783"/>
</g>
<!-- 6 -->
<g id="node7" class="node"><title>6</title>
<path fill="#e58139" stroke="black" d="M321,-179.5C321,-179.5 223,-179.5 223,-179.5 217,-179.5 211,-173.5 211,-167.5 211,-167.5 211,-123.5 211,-123.5 211,-117.5 217,-111.5 223,-111.5 223,-111.5 321,-111.5 321,-111.5 327,-111.5 333,-117.5 333,-123.5 333,-123.5 333,-167.5 333,-167.5 333,-173.5 327,-179.5 321,-179.5"/>
<text text-anchor="middle" x="272" y="-164.3" font-family="Helvetica,sans-Serif" font-size="14.00">gini = 0.0</text>
<text text-anchor="middle" x="272" y="-149.3" font-family="Helvetica,sans-Serif" font-size="14.00">samples = 3</text>
<text text-anchor="middle" x="272" y="-134.3" font-family="Helvetica,sans-Serif" font-size="14.00">value = [3, 0]</text>
<text text-anchor="middle" x="272" y="-119.3" font-family="Helvetica,sans-Serif" font-size="14.00">class = Not_Play</text>
</g>
<!-- 2&#45;&gt;6 -->
<g id="edge6" class="edge"><title>2&#45;&gt;6</title>
<path fill="none" stroke="black" d="M266.776,-222.907C267.507,-212.204 268.3,-200.615 269.041,-189.776"/>
<polygon fill="black" stroke="black" points="272.542,-189.882 269.732,-179.667 265.558,-189.405 272.542,-189.882"/>
</g>
<!-- 4 -->
<g id="node5" class="node"><title>4</title>
<path fill="#e58139" stroke="black" d="M110,-68C110,-68 12,-68 12,-68 6,-68 7.10543e-015,-62 7.10543e-015,-56 7.10543e-015,-56 7.10543e-015,-12 7.10543e-015,-12 7.10543e-015,-6 6,-0 12,-0 12,-0 110,-0 110,-0 116,-0 122,-6 122,-12 122,-12 122,-56 122,-56 122,-62 116,-68 110,-68"/>
<text text-anchor="middle" x="61" y="-52.8" font-family="Helvetica,sans-Serif" font-size="14.00">gini = 0.0</text>
<text text-anchor="middle" x="61" y="-37.8" font-family="Helvetica,sans-Serif" font-size="14.00">samples = 1</text>
<text text-anchor="middle" x="61" y="-22.8" font-family="Helvetica,sans-Serif" font-size="14.00">value = [1, 0]</text>
<text text-anchor="middle" x="61" y="-7.8" font-family="Helvetica,sans-Serif" font-size="14.00">class = Not_Play</text>
</g>
<!-- 3&#45;&gt;4 -->
<g id="edge4" class="edge"><title>3&#45;&gt;4</title>
<path fill="none" stroke="black" d="M101.169,-103.726C96.1044,-95.0615 90.7475,-85.8962 85.6532,-77.1802"/>
<polygon fill="black" stroke="black" points="88.5306,-75.167 80.4628,-68.2996 82.4872,-78.6992 88.5306,-75.167"/>
</g>
<!-- 5 -->
<g id="node6" class="node"><title>5</title>
<path fill="#399de5" stroke="black" d="M225.5,-68C225.5,-68 152.5,-68 152.5,-68 146.5,-68 140.5,-62 140.5,-56 140.5,-56 140.5,-12 140.5,-12 140.5,-6 146.5,-0 152.5,-0 152.5,-0 225.5,-0 225.5,-0 231.5,-0 237.5,-6 237.5,-12 237.5,-12 237.5,-56 237.5,-56 237.5,-62 231.5,-68 225.5,-68"/>
<text text-anchor="middle" x="189" y="-52.8" font-family="Helvetica,sans-Serif" font-size="14.00">gini = 0.0</text>
<text text-anchor="middle" x="189" y="-37.8" font-family="Helvetica,sans-Serif" font-size="14.00">samples = 1</text>
<text text-anchor="middle" x="189" y="-22.8" font-family="Helvetica,sans-Serif" font-size="14.00">value = [0, 1]</text>
<text text-anchor="middle" x="189" y="-7.8" font-family="Helvetica,sans-Serif" font-size="14.00">class = Play</text>
</g>
<!-- 3&#45;&gt;5 -->
<g id="edge5" class="edge"><title>3&#45;&gt;5</title>
<path fill="none" stroke="black" d="M148.831,-103.726C153.896,-95.0615 159.252,-85.8962 164.347,-77.1802"/>
<polygon fill="black" stroke="black" points="167.513,-78.6992 169.537,-68.2996 161.469,-75.167 167.513,-78.6992"/>
</g>
<!-- 8 -->
<g id="node9" class="node"><title>8</title>
<path fill="#399de5" stroke="black" d="M451.5,-179.5C451.5,-179.5 378.5,-179.5 378.5,-179.5 372.5,-179.5 366.5,-173.5 366.5,-167.5 366.5,-167.5 366.5,-123.5 366.5,-123.5 366.5,-117.5 372.5,-111.5 378.5,-111.5 378.5,-111.5 451.5,-111.5 451.5,-111.5 457.5,-111.5 463.5,-117.5 463.5,-123.5 463.5,-123.5 463.5,-167.5 463.5,-167.5 463.5,-173.5 457.5,-179.5 451.5,-179.5"/>
<text text-anchor="middle" x="415" y="-164.3" font-family="Helvetica,sans-Serif" font-size="14.00">gini = 0.0</text>
<text text-anchor="middle" x="415" y="-149.3" font-family="Helvetica,sans-Serif" font-size="14.00">samples = 3</text>
<text text-anchor="middle" x="415" y="-134.3" font-family="Helvetica,sans-Serif" font-size="14.00">value = [0, 3]</text>
<text text-anchor="middle" x="415" y="-119.3" font-family="Helvetica,sans-Serif" font-size="14.00">class = Play</text>
</g>
<!-- 7&#45;&gt;8 -->
<g id="edge8" class="edge"><title>7&#45;&gt;8</title>
<path fill="none" stroke="black" d="M419.571,-222.907C418.931,-212.204 418.238,-200.615 417.589,-189.776"/>
<polygon fill="black" stroke="black" points="421.075,-189.44 416.984,-179.667 414.088,-189.858 421.075,-189.44"/>
</g>
<!-- 9 -->
<g id="node10" class="node"><title>9</title>
<path fill="#ffffff" stroke="black" d="M622,-187C622,-187 494,-187 494,-187 488,-187 482,-181 482,-175 482,-175 482,-116 482,-116 482,-110 488,-104 494,-104 494,-104 622,-104 622,-104 628,-104 634,-110 634,-116 634,-116 634,-175 634,-175 634,-181 628,-187 622,-187"/>
<text text-anchor="middle" x="558" y="-171.8" font-family="Helvetica,sans-Serif" font-size="14.00">outlook_sunny &lt;= 0.5</text>
<text text-anchor="middle" x="558" y="-156.8" font-family="Helvetica,sans-Serif" font-size="14.00">gini = 0.5</text>
<text text-anchor="middle" x="558" y="-141.8" font-family="Helvetica,sans-Serif" font-size="14.00">samples = 2</text>
<text text-anchor="middle" x="558" y="-126.8" font-family="Helvetica,sans-Serif" font-size="14.00">value = [1, 1]</text>
<text text-anchor="middle" x="558" y="-111.8" font-family="Helvetica,sans-Serif" font-size="14.00">class = Not_Play</text>
</g>
<!-- 7&#45;&gt;9 -->
<g id="edge9" class="edge"><title>7&#45;&gt;9</title>
<path fill="none" stroke="black" d="M469.185,-222.907C480.155,-213.469 491.926,-203.343 503.194,-193.649"/>
<polygon fill="black" stroke="black" points="505.601,-196.196 510.899,-187.021 501.036,-190.889 505.601,-196.196"/>
</g>
<!-- 10 -->
<g id="node11" class="node"><title>10</title>
<path fill="#e58139" stroke="black" d="M543,-68C543,-68 445,-68 445,-68 439,-68 433,-62 433,-56 433,-56 433,-12 433,-12 433,-6 439,-0 445,-0 445,-0 543,-0 543,-0 549,-0 555,-6 555,-12 555,-12 555,-56 555,-56 555,-62 549,-68 543,-68"/>
<text text-anchor="middle" x="494" y="-52.8" font-family="Helvetica,sans-Serif" font-size="14.00">gini = 0.0</text>
<text text-anchor="middle" x="494" y="-37.8" font-family="Helvetica,sans-Serif" font-size="14.00">samples = 1</text>
<text text-anchor="middle" x="494" y="-22.8" font-family="Helvetica,sans-Serif" font-size="14.00">value = [1, 0]</text>
<text text-anchor="middle" x="494" y="-7.8" font-family="Helvetica,sans-Serif" font-size="14.00">class = Not_Play</text>
</g>
<!-- 9&#45;&gt;10 -->
<g id="edge10" class="edge"><title>9&#45;&gt;10</title>
<path fill="none" stroke="black" d="M534.169,-103.726C529.104,-95.0615 523.748,-85.8962 518.653,-77.1802"/>
<polygon fill="black" stroke="black" points="521.531,-75.167 513.463,-68.2996 515.487,-78.6992 521.531,-75.167"/>
</g>
<!-- 11 -->
<g id="node12" class="node"><title>11</title>
<path fill="#399de5" stroke="black" d="M658.5,-68C658.5,-68 585.5,-68 585.5,-68 579.5,-68 573.5,-62 573.5,-56 573.5,-56 573.5,-12 573.5,-12 573.5,-6 579.5,-0 585.5,-0 585.5,-0 658.5,-0 658.5,-0 664.5,-0 670.5,-6 670.5,-12 670.5,-12 670.5,-56 670.5,-56 670.5,-62 664.5,-68 658.5,-68"/>
<text text-anchor="middle" x="622" y="-52.8" font-family="Helvetica,sans-Serif" font-size="14.00">gini = 0.0</text>
<text text-anchor="middle" x="622" y="-37.8" font-family="Helvetica,sans-Serif" font-size="14.00">samples = 1</text>
<text text-anchor="middle" x="622" y="-22.8" font-family="Helvetica,sans-Serif" font-size="14.00">value = [0, 1]</text>
<text text-anchor="middle" x="622" y="-7.8" font-family="Helvetica,sans-Serif" font-size="14.00">class = Play</text>
</g>
<!-- 9&#45;&gt;11 -->
<g id="edge11" class="edge"><title>9&#45;&gt;11</title>
<path fill="none" stroke="black" d="M581.831,-103.726C586.896,-95.0615 592.252,-85.8962 597.347,-77.1802"/>
<polygon fill="black" stroke="black" points="600.513,-78.6992 602.537,-68.2996 594.469,-75.167 600.513,-78.6992"/>
</g>
</g>
</svg>
